<?xml version="1.0" encoding="utf-8" standalone="no"?>
<!DOCTYPE svg PUBLIC "-//W3C//DTD SVG 1.1//EN"
  "http://www.w3.org/Graphics/SVG/1.1/DTD/svg11.dtd">
<svg xmlns:xlink="http://www.w3.org/1999/xlink" width="851.142344pt" height="432.713749pt" viewBox="0 0 851.142344 432.713749" xmlns="http://www.w3.org/2000/svg" version="1.1">
 <metadata>
  <rdf:RDF xmlns:dc="http://purl.org/dc/elements/1.1/" xmlns:cc="http://creativecommons.org/ns#" xmlns:rdf="http://www.w3.org/1999/02/22-rdf-syntax-ns#">
   <cc:Work>
    <dc:type rdf:resource="http://purl.org/dc/dcmitype/StillImage"/>
    <dc:date>2026-09-28T21:05:04.441358</dc:date>
    <dc:format>image/svg+xml</dc:format>
    <dc:creator>
     <cc:Agent>
      <dc:title>Matplotlib v3.10.8, https://matplotlib.org/</dc:title>
     </cc:Agent>
    </dc:creator>
   </cc:Work>
  </rdf:RDF>
 </metadata>
 <defs>
  <style type="text/css">*{stroke-linejoin: round; stroke-linecap: butt}</style>
 </defs>
 <g id="figure_1">
  <g id="patch_1">
   <path d="M 0 432.713749 
L 851.142344 432.713749 
L 851.142344 0 
L 0 0 
z
" style="fill: #ffffff"/>
  </g>
  <g id="axes_1">
   <g id="patch_2">
    <path d="M 88.142344 365.898749 
L 835.302344 365.898749 
L 835.302344 63.733309 
L 88.142344 63.733309 
z
" style="fill: #ffffff"/>
   </g>
   <g id="matplotlib.axis_1">
    <g id="xtick_1">
     <g id="line2d_1">
      <path d="M 122.104162 365.898749 
L 122.104162 63.733309 
" clip-path="url(#p5c84fad5a8)" style="fill: none; stroke: #e6ecec; stroke-width: 0.8; stroke-linecap: square"/>
     </g>
     <g id="line2d_2">
      <defs>
       <path id="mad898fb674" d="M 0 0 
L 0 3.5 
" style="stroke: #546875; stroke-width: 0.8"/>
      </defs>
      <g>
       <use xlink:href="#mad898fb674" x="122.104162" y="365.898749" style="fill: #546875; stroke: #546875; stroke-width: 0.8"/>
      </g>
     </g>
     <g id="text_1">
      <!-- 10 -->
      <g style="fill: #546875" transform="translate(111.559162 388.021561) scale(0.19 -0.19)">
       <defs>
        <path id="NotoSansCJKjp-Regular-31" d="M 563 0 
L 3136 0 
L 3136 486 
L 2195 486 
L 2195 4698 
L 1747 4698 
C 1491 4544 1190 4435 774 4358 
L 774 3987 
L 1606 3987 
L 1606 486 
L 563 486 
L 563 0 
z
" transform="scale(0.015625)"/>
        <path id="NotoSansCJKjp-Regular-30" d="M 1779 -83 
C 2669 -83 3238 730 3238 2362 
C 3238 3987 2669 4781 1779 4781 
C 883 4781 314 3994 314 2362 
C 314 730 883 -83 1779 -83 
z
M 1779 384 
C 1242 384 883 979 883 2362 
C 883 3731 1242 4314 1779 4314 
C 2310 4314 2669 3731 2669 2362 
C 2669 979 2310 384 1779 384 
z
" transform="scale(0.015625)"/>
       </defs>
       <use xlink:href="#NotoSansCJKjp-Regular-31"/>
       <use xlink:href="#NotoSansCJKjp-Regular-30" transform="translate(55.499985 0)"/>
      </g>
     </g>
    </g>
    <g id="xtick_2">
     <g id="line2d_3">
      <path d="M 235.310223 365.898749 
L 235.310223 63.733309 
" clip-path="url(#p5c84fad5a8)" style="fill: none; stroke: #e6ecec; stroke-width: 0.8; stroke-linecap: square"/>
     </g>
     <g id="line2d_4">
      <g>
       <use xlink:href="#mad898fb674" x="235.310223" y="365.898749" style="fill: #546875; stroke: #546875; stroke-width: 0.8"/>
      </g>
     </g>
     <g id="text_2">
      <!-- 25 -->
      <g style="fill: #546875" transform="translate(224.765223 388.021561) scale(0.19 -0.19)">
       <defs>
        <path id="NotoSansCJKjp-Regular-32" d="M 282 0 
L 3232 0 
L 3232 506 
L 1933 506 
C 1696 506 1408 480 1165 461 
C 2266 1504 3002 2458 3002 3392 
C 3002 4230 2477 4781 1638 4781 
C 1043 4781 640 4506 256 4090 
L 595 3757 
C 851 4064 1184 4301 1568 4301 
C 2150 4301 2432 3910 2432 3373 
C 2432 2566 1754 1632 282 346 
L 282 0 
z
" transform="scale(0.015625)"/>
        <path id="NotoSansCJKjp-Regular-35" d="M 1670 -83 
C 2464 -83 3206 499 3206 1530 
C 3206 2560 2573 3021 1792 3021 
C 1510 3021 1306 2950 1094 2835 
L 1210 4192 
L 2982 4192 
L 2982 4698 
L 698 4698 
L 550 2496 
L 864 2304 
C 1133 2483 1331 2579 1645 2579 
C 2234 2579 2618 2182 2618 1510 
C 2618 826 2170 403 1619 403 
C 1075 403 736 653 467 922 
L 179 538 
C 493 224 941 -83 1670 -83 
z
" transform="scale(0.015625)"/>
       </defs>
       <use xlink:href="#NotoSansCJKjp-Regular-32"/>
       <use xlink:href="#NotoSansCJKjp-Regular-35" transform="translate(55.499985 0)"/>
      </g>
     </g>
    </g>
    <g id="xtick_3">
     <g id="line2d_5">
      <path d="M 423.98699 365.898749 
L 423.98699 63.733309 
" clip-path="url(#p5c84fad5a8)" style="fill: none; stroke: #e6ecec; stroke-width: 0.8; stroke-linecap: square"/>
     </g>
     <g id="line2d_6">
      <g>
       <use xlink:href="#mad898fb674" x="423.98699" y="365.898749" style="fill: #546875; stroke: #546875; stroke-width: 0.8"/>
      </g>
     </g>
     <g id="text_3">
      <!-- 50 -->
      <g style="fill: #546875" transform="translate(413.44199 388.021561) scale(0.19 -0.19)">
       <use xlink:href="#NotoSansCJKjp-Regular-35"/>
       <use xlink:href="#NotoSansCJKjp-Regular-30" transform="translate(55.499985 0)"/>
      </g>
     </g>
    </g>
    <g id="xtick_4">
     <g id="line2d_7">
      <path d="M 801.340526 365.898749 
L 801.340526 63.733309 
" clip-path="url(#p5c84fad5a8)" style="fill: none; stroke: #e6ecec; stroke-width: 0.8; stroke-linecap: square"/>
     </g>
     <g id="line2d_8">
      <g>
       <use xlink:href="#mad898fb674" x="801.340526" y="365.898749" style="fill: #546875; stroke: #546875; stroke-width: 0.8"/>
      </g>
     </g>
     <g id="text_4">
      <!-- 100 -->
      <g style="fill: #546875" transform="translate(785.523026 388.021561) scale(0.19 -0.19)">
       <use xlink:href="#NotoSansCJKjp-Regular-31"/>
       <use xlink:href="#NotoSansCJKjp-Regular-30" transform="translate(55.499985 0)"/>
       <use xlink:href="#NotoSansCJKjp-Regular-30" transform="translate(110.999969 0)"/>
      </g>
     </g>
    </g>
    <g id="text_5">
     <!-- 辅助标签量 / 完整训练数据的 % -->
     <g style="fill: #546875" transform="translate(321.870781 412.292499) scale(0.2 -0.2)">
      <defs>
       <path id="NotoSansCJKjp-Regular-8f85" d="M 5946 4781 
C 5760 4934 5421 5178 5178 5338 
L 4890 5120 
C 5139 4941 5472 4678 5645 4525 
L 5946 4781 
z
M 2675 1498 
L 2048 1389 
L 2048 2214 
L 2611 2214 
L 2611 2637 
L 2048 2637 
L 2048 3629 
L 1619 3629 
L 1619 2637 
L 941 2637 
C 1126 3078 1299 3610 1453 4154 
L 2592 4154 
L 2592 4595 
L 1562 4595 
C 1619 4813 1664 5037 1709 5254 
L 1242 5350 
C 1210 5094 1158 4845 1107 4595 
L 294 4595 
L 294 4154 
L 998 4154 
C 864 3642 730 3219 666 3059 
C 563 2778 480 2573 365 2547 
C 416 2438 480 2253 512 2150 
L 512 2125 
L 518 2131 
L 518 2125 
L 518 2131 
C 570 2176 762 2214 973 2214 
L 1619 2214 
L 1619 1312 
C 1107 1216 627 1133 256 1082 
L 365 614 
C 730 685 1158 774 1619 864 
L 1619 -454 
L 2048 -454 
L 2048 947 
L 2707 1082 
L 2675 1498 
z
M 5453 3098 
L 5453 2426 
L 4659 2426 
L 4659 3098 
L 5453 3098 
z
M 4659 1325 
L 4659 2022 
L 5453 2022 
L 5453 1325 
L 4659 1325 
z
M 3437 1325 
L 3437 2022 
L 4250 2022 
L 4250 1325 
L 3437 1325 
z
M 3437 3098 
L 4250 3098 
L 4250 2426 
L 3437 2426 
L 3437 3098 
z
M 6106 4077 
L 6106 4486 
L 4678 4486 
L 4678 5350 
L 4230 5350 
L 4230 4486 
L 2829 4486 
L 2829 4077 
L 4230 4077 
L 4230 3514 
L 3014 3514 
L 3014 -474 
L 3437 -474 
L 3437 915 
L 4250 915 
L 4250 -442 
L 4659 -442 
L 4659 915 
L 5453 915 
L 5453 38 
C 5453 -32 5440 -51 5376 -51 
C 5318 -51 5133 -58 4922 -45 
C 4979 -166 5037 -346 5056 -467 
C 5350 -467 5568 -454 5702 -384 
C 5850 -307 5882 -186 5882 32 
L 5882 3514 
L 4678 3514 
L 4678 4077 
L 6106 4077 
z
" transform="scale(0.015625)"/>
       <path id="NotoSansCJKjp-Regular-52a9" d="M 1133 1894 
L 2330 1894 
L 2330 1050 
C 1907 960 1504 870 1133 794 
L 1133 1894 
z
M 2330 4608 
L 2330 3674 
L 1133 3674 
L 1133 4608 
L 2330 4608 
z
M 2330 2323 
L 1133 2323 
L 1133 3245 
L 2330 3245 
L 2330 2323 
z
M 3130 1222 
L 2778 1146 
L 2778 5043 
L 698 5043 
L 698 704 
L 243 614 
L 326 134 
C 1088 307 2163 557 3162 794 
L 3130 1222 
z
M 4486 3910 
C 4506 4378 4506 4858 4506 5350 
L 4045 5350 
C 4045 4858 4045 4378 4026 3910 
L 2989 3910 
L 2989 3456 
L 4006 3456 
C 3917 1926 3597 608 2381 -154 
C 2502 -224 2656 -390 2726 -506 
C 4019 352 4371 1792 4467 3456 
L 5466 3456 
C 5408 1126 5338 282 5178 90 
C 5120 6 5050 -13 4941 -6 
C 4806 -6 4474 -6 4109 19 
C 4192 -102 4237 -294 4250 -435 
C 4589 -448 4934 -461 5126 -442 
C 5331 -416 5466 -365 5587 -198 
C 5798 83 5862 992 5926 3674 
C 5926 3731 5933 3910 5933 3910 
L 4486 3910 
z
" transform="scale(0.015625)"/>
       <path id="NotoSansCJKjp-Regular-6807" d="M 5747 4864 
L 2976 4864 
L 2976 4416 
L 5747 4416 
L 5747 4864 
z
M 2637 2304 
C 2515 2470 1971 3162 1779 3392 
L 1779 3558 
L 2605 3558 
L 2605 4006 
L 1779 4006 
L 1779 5350 
L 1306 5350 
L 1306 4006 
L 339 4006 
L 339 3558 
L 1203 3558 
C 998 2765 582 1856 173 1376 
C 262 1261 390 1069 442 934 
C 768 1344 1075 2010 1306 2694 
L 1306 -486 
L 1779 -486 
L 1779 2842 
C 1990 2528 2253 2131 2355 1926 
L 2637 2304 
z
M 3142 2189 
C 2976 1510 2688 826 2336 378 
C 2445 326 2630 192 2714 128 
C 3059 614 3379 1357 3578 2093 
L 3142 2189 
z
M 6086 2899 
L 6086 3347 
L 2701 3347 
L 2701 2899 
L 4064 2899 
L 4064 122 
C 4064 38 4038 19 3942 13 
C 3859 6 3565 6 3232 19 
C 3290 -122 3360 -326 3379 -467 
C 3827 -467 4122 -461 4301 -371 
C 4486 -294 4538 -154 4538 115 
L 4538 2899 
L 6086 2899 
z
M 4973 2080 
C 5274 1453 5568 621 5658 122 
L 6099 275 
C 5990 781 5677 1587 5370 2202 
L 4973 2080 
z
" transform="scale(0.015625)"/>
       <path id="NotoSansCJKjp-Regular-7b7e" d="M 1562 4397 
C 1715 4122 1869 3782 1933 3565 
L 2355 3686 
C 2298 3885 2176 4154 2035 4397 
L 3053 4397 
L 3053 4794 
L 1459 4794 
C 1530 4954 1594 5114 1651 5267 
L 1210 5382 
C 1005 4755 659 4128 262 3712 
C 378 3654 570 3539 653 3462 
C 864 3712 1082 4038 1274 4397 
L 1562 4397 
z
M 4845 1907 
C 4582 1293 4205 595 3840 102 
L 429 102 
L 429 -320 
L 5965 -320 
L 5965 102 
L 4384 102 
C 4691 595 5024 1222 5280 1779 
L 4845 1907 
z
M 4480 2579 
L 1901 2579 
L 1901 2176 
L 4480 2176 
L 4480 2579 
z
M 3680 666 
C 3584 992 3334 1530 3098 1939 
L 2720 1792 
C 2950 1389 3200 838 3283 499 
L 3680 666 
z
M 1146 1619 
C 1421 1229 1722 710 1843 384 
L 2246 576 
C 2112 896 1805 1408 1530 1786 
L 1146 1619 
z
M 3366 4013 
C 3469 4128 3565 4256 3661 4397 
L 4256 4397 
C 4461 4122 4672 3782 4755 3558 
L 5203 3667 
C 5114 3878 4941 4154 4755 4397 
L 5990 4397 
L 5990 4794 
L 3898 4794 
C 3981 4954 4058 5114 4122 5274 
L 3674 5382 
C 3514 4928 3219 4474 2880 4173 
C 2950 4134 3053 4064 3142 4000 
C 2490 3277 1325 2688 256 2368 
C 365 2272 467 2099 538 1990 
C 1498 2310 2490 2835 3206 3488 
C 3872 2880 4947 2323 5843 2048 
C 5914 2170 6042 2349 6150 2438 
C 5203 2675 4077 3206 3469 3738 
C 3514 3789 3558 3840 3603 3891 
L 3366 4013 
z
" transform="scale(0.015625)"/>
       <path id="NotoSansCJKjp-Regular-91cf" d="M 4774 4518 
L 1606 4518 
L 1606 4864 
L 4774 4864 
L 4774 4518 
z
M 4774 3891 
L 1606 3891 
L 1606 4243 
L 4774 4243 
L 4774 3891 
z
M 5242 5152 
L 1152 5152 
L 1152 3603 
L 5242 3603 
L 5242 5152 
z
M 6054 3341 
L 358 3341 
L 358 2976 
L 6054 2976 
L 6054 3341 
z
M 1478 1389 
L 1478 1754 
L 2963 1754 
L 2963 1389 
L 1478 1389 
z
M 1478 2394 
L 2963 2394 
L 2963 2035 
L 1478 2035 
L 1478 2394 
z
M 4966 2035 
L 3418 2035 
L 3418 2394 
L 4966 2394 
L 4966 2035 
z
M 4966 1389 
L 3418 1389 
L 3418 1754 
L 4966 1754 
L 4966 1389 
z
M 3418 38 
L 3418 410 
L 5568 410 
L 5568 742 
L 3418 742 
L 3418 1094 
L 5434 1094 
L 5434 2688 
L 1037 2688 
L 1037 1094 
L 2963 1094 
L 2963 742 
L 851 742 
L 851 410 
L 2963 410 
L 2963 38 
L 320 38 
L 320 -333 
L 6086 -333 
L 6086 38 
L 3418 38 
z
" transform="scale(0.015625)"/>
       <path id="NotoSansCJKjp-Regular-20" transform="scale(0.015625)"/>
       <path id="NotoSansCJKjp-Regular-2f" d="M 70 -1146 
L 499 -1146 
L 2413 5082 
L 1990 5082 
L 70 -1146 
z
" transform="scale(0.015625)"/>
       <path id="NotoSansCJKjp-Regular-5b8c" d="M 1011 4224 
L 5370 4224 
L 5370 3334 
L 5862 3334 
L 5862 4672 
L 3430 4672 
L 3430 5350 
L 2938 5350 
L 2938 4672 
L 531 4672 
L 531 3334 
L 1011 3334 
L 1011 4224 
z
M 4922 3072 
L 4922 3514 
L 1472 3514 
L 1472 3072 
L 4922 3072 
z
M 4448 58 
C 4179 58 4134 96 4134 275 
L 4134 1894 
L 6016 1894 
L 6016 2342 
L 384 2342 
L 384 1894 
L 2035 1894 
C 1920 928 1606 243 243 -96 
C 346 -186 474 -384 525 -499 
C 2016 -83 2394 736 2541 1894 
L 3661 1894 
L 3661 275 
C 3661 -230 3814 -378 4397 -378 
L 5382 -378 
C 5888 -378 6029 -154 6080 717 
C 5952 755 5754 832 5645 902 
C 5626 173 5581 58 5344 58 
L 4448 58 
z
" transform="scale(0.015625)"/>
       <path id="NotoSansCJKjp-Regular-6574" d="M 960 3955 
L 1638 3955 
L 1638 3418 
L 960 3418 
L 960 3955 
z
M 2758 3955 
L 2758 3418 
L 2067 3418 
L 2067 3955 
L 2758 3955 
z
M 5197 4256 
C 5082 3878 4909 3565 4685 3296 
C 4422 3590 4230 3917 4096 4237 
L 4109 4256 
L 5197 4256 
z
M 1638 2003 
L 2067 2003 
L 2067 2778 
C 2374 2605 2790 2362 2976 2234 
L 3206 2547 
C 3027 2650 2362 2982 2106 3104 
L 3162 3104 
L 3162 3712 
C 3264 3629 3405 3482 3462 3405 
C 3603 3539 3738 3693 3859 3866 
C 3994 3578 4173 3283 4403 3014 
C 4058 2714 3622 2490 3104 2336 
C 3200 2253 3341 2074 3386 1984 
C 3891 2170 4333 2400 4691 2707 
C 5018 2400 5414 2138 5901 1958 
C 5965 2074 6086 2246 6176 2336 
C 5696 2483 5299 2720 4979 2995 
C 5286 3334 5510 3750 5658 4256 
L 6067 4256 
L 6067 4640 
L 4307 4640 
C 4397 4838 4474 5043 4538 5254 
L 4102 5350 
C 3930 4723 3597 4141 3162 3750 
L 3162 4269 
L 2067 4269 
L 2067 4595 
L 3315 4595 
L 3315 4941 
L 2067 4941 
L 2067 5357 
L 1638 5357 
L 1638 4941 
L 384 4941 
L 384 4595 
L 1638 4595 
L 1638 4269 
L 570 4269 
L 570 3104 
L 1453 3104 
C 1139 2790 666 2464 275 2304 
C 371 2234 499 2093 557 2003 
C 902 2176 1318 2496 1638 2822 
L 1638 2003 
z
M 3424 576 
L 5261 576 
L 5261 947 
L 3424 947 
L 3424 1440 
L 5677 1440 
L 5677 1830 
L 755 1830 
L 755 1440 
L 2963 1440 
L 2963 51 
L 1824 51 
L 1824 1152 
L 1376 1152 
L 1376 51 
L 326 51 
L 326 -346 
L 6093 -346 
L 6093 51 
L 3424 51 
L 3424 576 
z
" transform="scale(0.015625)"/>
       <path id="NotoSansCJKjp-Regular-8bad" d="M 2048 4205 
C 1811 4480 1318 4909 934 5210 
L 640 4896 
C 1018 4582 1498 4134 1728 3846 
L 2048 4205 
z
M 1638 691 
L 1638 3354 
L 282 3354 
L 282 2893 
L 1178 2893 
L 1178 589 
C 1178 275 986 70 870 -26 
C 954 -96 1082 -269 1133 -365 
C 1222 -230 1389 -83 2432 787 
C 2368 870 2285 1056 2240 1178 
L 1638 691 
z
M 2758 2957 
C 2758 1824 2688 717 2086 -211 
C 2221 -269 2432 -397 2534 -486 
C 3155 518 3226 1734 3226 2957 
L 3226 5165 
L 2758 5165 
L 2758 2957 
z
M 4096 326 
L 4544 326 
L 4544 4858 
L 4096 4858 
L 4096 326 
z
M 5421 5190 
L 5421 -403 
L 5888 -403 
L 5888 5190 
L 5421 5190 
z
" transform="scale(0.015625)"/>
       <path id="NotoSansCJKjp-Regular-7ec3" d="M 467 1171 
C 595 1242 794 1306 2240 1619 
C 2227 1715 2227 1894 2234 2022 
L 1094 1798 
C 1523 2368 1946 3059 2285 3744 
L 1882 3968 
C 1779 3738 1670 3507 1549 3290 
L 870 3213 
C 1216 3770 1549 4493 1786 5171 
L 1344 5370 
C 1133 4595 736 3757 608 3552 
C 480 3334 384 3174 275 3149 
C 333 3021 410 2803 435 2701 
C 518 2746 659 2784 1318 2874 
C 1075 2470 858 2138 755 2016 
C 589 1779 454 1626 326 1594 
C 378 1491 435 1312 467 1203 
L 467 1171 
z
M 2170 1030 
C 1472 781 774 525 314 371 
L 429 -90 
C 947 122 1606 397 2246 666 
L 2170 1030 
z
M 3002 1510 
C 2822 1050 2458 467 2093 96 
C 2189 32 2342 -90 2426 -173 
C 2816 237 3200 858 3443 1389 
L 3002 1510 
z
M 3085 2336 
C 3194 2579 3296 2848 3405 3123 
L 4038 3123 
L 4038 2336 
L 3085 2336 
z
M 5818 1901 
L 5818 2336 
L 4493 2336 
L 4493 3565 
L 3565 3565 
C 3629 3763 3699 3968 3763 4173 
L 5946 4173 
L 5946 4608 
L 3885 4608 
C 3949 4838 4006 5075 4064 5299 
L 3590 5389 
C 3546 5126 3488 4864 3418 4608 
L 2304 4608 
L 2304 4173 
L 3296 4173 
C 3238 3955 3168 3750 3104 3565 
L 2406 3565 
L 2406 3123 
L 2950 3123 
C 2899 2982 2861 2880 2829 2816 
C 2694 2496 2592 2266 2477 2234 
C 2528 2118 2605 1901 2630 1805 
C 2682 1862 2893 1901 3194 1901 
L 4038 1901 
L 4038 70 
C 4038 -13 4006 -38 3917 -45 
C 3827 -51 3526 -51 3200 -45 
C 3258 -173 3322 -352 3341 -480 
C 3782 -480 4077 -474 4262 -397 
C 4435 -320 4493 -198 4493 70 
L 4493 1901 
L 5818 1901 
z
M 4954 1338 
C 5235 877 5574 250 5734 -115 
L 6138 90 
C 5965 442 5613 1056 5331 1504 
L 4954 1338 
z
" transform="scale(0.015625)"/>
       <path id="NotoSansCJKjp-Regular-6570" d="M 2803 5229 
C 2701 4979 2483 4608 2330 4384 
L 2650 4230 
C 2816 4442 3034 4762 3219 5056 
L 2803 5229 
z
M 1325 4384 
C 1261 4608 1088 4947 909 5203 
L 550 5056 
C 723 4794 890 4442 947 4218 
L 1325 4384 
z
M 4128 3738 
L 5242 3738 
C 5126 2944 4954 2266 4678 1696 
C 4422 2291 4243 2982 4122 3718 
L 4128 3738 
z
M 2381 1568 
C 2298 1222 2170 941 1978 710 
C 1728 832 1472 947 1216 1050 
C 1299 1216 1395 1389 1485 1568 
L 2381 1568 
z
M 6118 3738 
L 6118 4186 
L 4262 4186 
C 4352 4538 4435 4909 4499 5286 
L 4013 5357 
C 3840 4230 3507 3162 2970 2490 
C 3078 2413 3283 2253 3354 2163 
C 3526 2394 3686 2662 3821 2963 
C 3968 2310 4154 1715 4397 1197 
C 4083 717 3661 333 3117 32 
C 2918 179 2662 346 2381 499 
C 2598 787 2746 1139 2835 1568 
L 3392 1568 
L 3392 1965 
L 1683 1965 
C 1760 2118 1830 2272 1901 2413 
L 1792 2438 
L 2067 2438 
L 2067 3392 
C 2374 3162 2778 2854 2944 2701 
L 3206 3040 
C 3034 3168 2342 3603 2067 3763 
L 2067 3795 
L 3366 3795 
L 3366 4186 
L 2067 4186 
L 2067 5357 
L 1626 5357 
L 1626 4186 
L 314 4186 
L 314 3795 
L 1498 3795 
C 1184 3379 698 2982 243 2778 
C 333 2694 448 2528 506 2419 
C 896 2630 1306 2982 1626 3360 
L 1626 2477 
L 1459 2515 
C 1382 2342 1293 2157 1197 1965 
L 275 1965 
L 275 1568 
L 998 1568 
C 826 1235 653 909 512 666 
L 922 518 
L 1024 698 
C 1235 608 1446 506 1651 403 
C 1325 166 877 6 288 -96 
C 378 -186 474 -358 506 -486 
C 1190 -339 1696 -128 2067 179 
C 2362 6 2618 -166 2816 -326 
L 2963 -173 
C 3046 -282 3130 -422 3168 -506 
C 3795 -186 4275 224 4653 723 
C 4966 211 5357 -198 5850 -486 
C 5914 -358 6067 -173 6176 -83 
C 5664 186 5261 621 4941 1171 
C 5331 1856 5574 2701 5734 3738 
L 6118 3738 
z
" transform="scale(0.015625)"/>
       <path id="NotoSansCJKjp-Regular-636e" d="M 2259 2138 
L 2195 2573 
L 1530 2362 
L 1530 3629 
L 2253 3629 
L 2253 4070 
L 1530 4070 
L 1530 5350 
L 1088 5350 
L 1088 4070 
L 294 4070 
L 294 3629 
L 1088 3629 
L 1088 2227 
C 755 2131 454 2042 218 1971 
L 333 1517 
C 563 1587 819 1664 1088 1754 
L 1088 109 
C 1088 13 1056 -13 979 -13 
C 909 -13 653 -13 378 -6 
C 442 -141 499 -333 518 -448 
C 922 -454 1165 -435 1312 -358 
C 1472 -282 1530 -160 1530 102 
L 1530 1901 
L 2259 2138 
z
M 2989 2726 
C 2995 2880 2995 3014 2995 3155 
L 2995 3430 
L 4230 3430 
L 4230 2726 
L 2989 2726 
z
M 5434 4659 
L 5434 3846 
L 2995 3846 
L 2995 4659 
L 5434 4659 
z
M 5478 160 
L 3514 160 
L 3514 1126 
L 5478 1126 
L 5478 160 
z
M 6106 2317 
L 6106 2726 
L 4685 2726 
L 4685 3430 
L 5888 3430 
L 5888 5075 
L 2534 5075 
L 2534 3155 
C 2534 2144 2477 755 1818 -224 
C 1926 -269 2125 -403 2202 -493 
C 2739 294 2912 1370 2970 2317 
L 4230 2317 
L 4230 1530 
L 3098 1530 
L 3098 -499 
L 3514 -499 
L 3514 -237 
L 5478 -237 
L 5478 -474 
L 5914 -474 
L 5914 1530 
L 4685 1530 
L 4685 2317 
L 6106 2317 
z
" transform="scale(0.015625)"/>
       <path id="NotoSansCJKjp-Regular-7684" d="M 2355 2566 
L 1011 2566 
L 1011 3904 
L 2355 3904 
L 2355 2566 
z
M 1011 608 
L 1011 2144 
L 2355 2144 
L 2355 608 
L 1011 608 
z
M 1549 5370 
C 1504 5069 1389 4640 1293 4333 
L 576 4333 
L 576 -326 
L 1011 -326 
L 1011 179 
L 2790 179 
L 2790 4333 
L 1728 4333 
C 1837 4608 1952 4960 2061 5274 
L 1549 5370 
z
M 5920 4352 
L 4006 4352 
C 4115 4653 4205 4960 4282 5274 
L 3827 5382 
C 3622 4506 3277 3622 2848 3059 
C 2950 2995 3155 2867 3238 2790 
C 3462 3091 3661 3482 3840 3910 
L 5466 3910 
C 5382 1363 5286 390 5075 166 
C 5011 83 4941 70 4813 70 
C 4666 70 4282 70 3866 109 
C 3955 -26 4013 -218 4026 -358 
C 4384 -378 4749 -390 4973 -365 
C 5190 -346 5338 -288 5478 -109 
C 5734 205 5818 1190 5920 4109 
L 5920 4352 
z
M 4909 1472 
C 4704 1850 4262 2464 3904 2918 
L 3533 2701 
C 3885 2240 4314 1606 4506 1222 
L 4909 1472 
z
" transform="scale(0.015625)"/>
       <path id="NotoSansCJKjp-Regular-25" d="M 1312 1818 
C 1958 1818 2381 2362 2381 3309 
C 2381 4250 1958 4781 1312 4781 
C 672 4781 250 4250 250 3309 
C 250 2362 672 1818 1312 1818 
z
M 1312 2182 
C 947 2182 691 2560 691 3309 
C 691 4058 947 4422 1312 4422 
C 1683 4422 1939 4058 1939 3309 
C 1939 2560 1683 2182 1312 2182 
z
M 1453 -83 
L 1843 -83 
L 4435 4781 
L 4038 4781 
L 1453 -83 
z
M 4582 -83 
C 5222 -83 5645 454 5645 1402 
C 5645 2342 5222 2874 4582 2874 
C 3942 2874 3514 2342 3514 1402 
C 3514 454 3942 -83 4582 -83 
z
M 4582 275 
C 4211 275 3962 653 3962 1402 
C 3962 2150 4211 2515 4582 2515 
C 4947 2515 5203 2150 5203 1402 
C 5203 653 4947 275 4582 275 
z
" transform="scale(0.015625)"/>
      </defs>
      <use xlink:href="#NotoSansCJKjp-Regular-8f85"/>
      <use xlink:href="#NotoSansCJKjp-Regular-52a9" transform="translate(99.999985 0)"/>
      <use xlink:href="#NotoSansCJKjp-Regular-6807" transform="translate(199.999969 0)"/>
      <use xlink:href="#NotoSansCJKjp-Regular-7b7e" transform="translate(299.999954 0)"/>
      <use xlink:href="#NotoSansCJKjp-Regular-91cf" transform="translate(399.999939 0)"/>
      <use xlink:href="#NotoSansCJKjp-Regular-20" transform="translate(499.999924 0)"/>
      <use xlink:href="#NotoSansCJKjp-Regular-2f" transform="translate(522.399918 0)"/>
      <use xlink:href="#NotoSansCJKjp-Regular-20" transform="translate(561.599915 0)"/>
      <use xlink:href="#NotoSansCJKjp-Regular-5b8c" transform="translate(583.999908 0)"/>
      <use xlink:href="#NotoSansCJKjp-Regular-6574" transform="translate(683.999893 0)"/>
      <use xlink:href="#NotoSansCJKjp-Regular-8bad" transform="translate(783.999878 0)"/>
      <use xlink:href="#NotoSansCJKjp-Regular-7ec3" transform="translate(883.999863 0)"/>
      <use xlink:href="#NotoSansCJKjp-Regular-6570" transform="translate(983.999847 0)"/>
      <use xlink:href="#NotoSansCJKjp-Regular-636e" transform="translate(1083.999832 0)"/>
      <use xlink:href="#NotoSansCJKjp-Regular-7684" transform="translate(1183.999817 0)"/>
      <use xlink:href="#NotoSansCJKjp-Regular-20" transform="translate(1283.999802 0)"/>
      <use xlink:href="#NotoSansCJKjp-Regular-25" transform="translate(1306.399796 0)"/>
     </g>
    </g>
   </g>
   <g id="matplotlib.axis_2">
    <g id="ytick_1">
     <g id="line2d_9">
      <path d="M 88.142344 354.277001 
L 835.302344 354.277001 
" clip-path="url(#p5c84fad5a8)" style="fill: none; stroke: #e6ecec; stroke-width: 0.8; stroke-linecap: square"/>
     </g>
     <g id="line2d_10">
      <defs>
       <path id="m21420cf990" d="M 0 0 
L -3.5 0 
" style="stroke: #203544; stroke-width: 0.8"/>
      </defs>
      <g>
       <use xlink:href="#m21420cf990" x="88.142344" y="354.277001" style="fill: #203544; stroke: #203544; stroke-width: 0.8"/>
      </g>
     </g>
     <g id="text_6">
      <!-- 0.95 -->
      <g style="fill: #203544" transform="translate(40.34 362.634345) scale(0.21 -0.21)">
       <defs>
        <path id="NotoSansCJKjp-Regular-2e" d="M 890 -83 
C 1120 -83 1312 96 1312 358 
C 1312 627 1120 813 890 813 
C 659 813 467 627 467 358 
C 467 96 659 -83 890 -83 
z
" transform="scale(0.015625)"/>
        <path id="NotoSansCJKjp-Regular-39" d="M 832 3258 
C 832 3898 1178 4320 1626 4320 
C 2227 4320 2586 3808 2650 2842 
C 2349 2400 1990 2214 1670 2214 
C 1114 2214 832 2624 832 3258 
z
M 1498 -83 
C 2381 -83 3200 646 3200 2547 
C 3200 4038 2528 4781 1626 4781 
C 896 4781 282 4166 282 3258 
C 282 2285 794 1779 1574 1779 
C 1965 1779 2368 2003 2656 2355 
C 2611 902 2086 403 1478 403 
C 1178 403 890 538 698 762 
L 371 397 
C 634 122 992 -83 1498 -83 
z
" transform="scale(0.015625)"/>
       </defs>
       <use xlink:href="#NotoSansCJKjp-Regular-30"/>
       <use xlink:href="#NotoSansCJKjp-Regular-2e" transform="translate(55.499985 0)"/>
       <use xlink:href="#NotoSansCJKjp-Regular-39" transform="translate(83.299973 0)"/>
       <use xlink:href="#NotoSansCJKjp-Regular-35" transform="translate(138.799957 0)"/>
      </g>
     </g>
    </g>
    <g id="ytick_2">
     <g id="line2d_11">
      <path d="M 88.142344 296.168263 
L 835.302344 296.168263 
" clip-path="url(#p5c84fad5a8)" style="fill: none; stroke: #e6ecec; stroke-width: 0.8; stroke-linecap: square"/>
     </g>
     <g id="line2d_12">
      <g>
       <use xlink:href="#m21420cf990" x="88.142344" y="296.168263" style="fill: #203544; stroke: #203544; stroke-width: 0.8"/>
      </g>
     </g>
     <g id="text_7">
      <!-- 1.00 -->
      <g style="fill: #203544" transform="translate(40.34 304.525606) scale(0.21 -0.21)">
       <use xlink:href="#NotoSansCJKjp-Regular-31"/>
       <use xlink:href="#NotoSansCJKjp-Regular-2e" transform="translate(55.499985 0)"/>
       <use xlink:href="#NotoSansCJKjp-Regular-30" transform="translate(83.299973 0)"/>
       <use xlink:href="#NotoSansCJKjp-Regular-30" transform="translate(138.799957 0)"/>
      </g>
     </g>
    </g>
    <g id="ytick_3">
     <g id="line2d_13">
      <path d="M 88.142344 238.059524 
L 835.302344 238.059524 
" clip-path="url(#p5c84fad5a8)" style="fill: none; stroke: #e6ecec; stroke-width: 0.8; stroke-linecap: square"/>
     </g>
     <g id="line2d_14">
      <g>
       <use xlink:href="#m21420cf990" x="88.142344" y="238.059524" style="fill: #203544; stroke: #203544; stroke-width: 0.8"/>
      </g>
     </g>
     <g id="text_8">
      <!-- 1.05 -->
      <g style="fill: #203544" transform="translate(40.34 246.416868) scale(0.21 -0.21)">
       <use xlink:href="#NotoSansCJKjp-Regular-31"/>
       <use xlink:href="#NotoSansCJKjp-Regular-2e" transform="translate(55.499985 0)"/>
       <use xlink:href="#NotoSansCJKjp-Regular-30" transform="translate(83.299973 0)"/>
       <use xlink:href="#NotoSansCJKjp-Regular-35" transform="translate(138.799957 0)"/>
      </g>
     </g>
    </g>
    <g id="ytick_4">
     <g id="line2d_15">
      <path d="M 88.142344 179.950786 
L 835.302344 179.950786 
" clip-path="url(#p5c84fad5a8)" style="fill: none; stroke: #e6ecec; stroke-width: 0.8; stroke-linecap: square"/>
     </g>
     <g id="line2d_16">
      <g>
       <use xlink:href="#m21420cf990" x="88.142344" y="179.950786" style="fill: #203544; stroke: #203544; stroke-width: 0.8"/>
      </g>
     </g>
     <g id="text_9">
      <!-- 1.10 -->
      <g style="fill: #203544" transform="translate(40.34 188.308129) scale(0.21 -0.21)">
       <use xlink:href="#NotoSansCJKjp-Regular-31"/>
       <use xlink:href="#NotoSansCJKjp-Regular-2e" transform="translate(55.499985 0)"/>
       <use xlink:href="#NotoSansCJKjp-Regular-31" transform="translate(83.299973 0)"/>
       <use xlink:href="#NotoSansCJKjp-Regular-30" transform="translate(138.799957 0)"/>
      </g>
     </g>
    </g>
    <g id="ytick_5">
     <g id="line2d_17">
      <path d="M 88.142344 121.842047 
L 835.302344 121.842047 
" clip-path="url(#p5c84fad5a8)" style="fill: none; stroke: #e6ecec; stroke-width: 0.8; stroke-linecap: square"/>
     </g>
     <g id="line2d_18">
      <g>
       <use xlink:href="#m21420cf990" x="88.142344" y="121.842047" style="fill: #203544; stroke: #203544; stroke-width: 0.8"/>
      </g>
     </g>
     <g id="text_10">
      <!-- 1.15 -->
      <g style="fill: #203544" transform="translate(40.34 130.199391) scale(0.21 -0.21)">
       <use xlink:href="#NotoSansCJKjp-Regular-31"/>
       <use xlink:href="#NotoSansCJKjp-Regular-2e" transform="translate(55.499985 0)"/>
       <use xlink:href="#NotoSansCJKjp-Regular-31" transform="translate(83.299973 0)"/>
       <use xlink:href="#NotoSansCJKjp-Regular-35" transform="translate(138.799957 0)"/>
      </g>
     </g>
    </g>
    <g id="ytick_6">
     <g id="line2d_19">
      <path d="M 88.142344 63.733309 
L 835.302344 63.733309 
" clip-path="url(#p5c84fad5a8)" style="fill: none; stroke: #e6ecec; stroke-width: 0.8; stroke-linecap: square"/>
     </g>
     <g id="line2d_20">
      <g>
       <use xlink:href="#m21420cf990" x="88.142344" y="63.733309" style="fill: #203544; stroke: #203544; stroke-width: 0.8"/>
      </g>
     </g>
     <g id="text_11">
      <!-- 1.20 -->
      <g style="fill: #203544" transform="translate(40.34 72.090653) scale(0.21 -0.21)">
       <use xlink:href="#NotoSansCJKjp-Regular-31"/>
       <use xlink:href="#NotoSansCJKjp-Regular-2e" transform="translate(55.499985 0)"/>
       <use xlink:href="#NotoSansCJKjp-Regular-32" transform="translate(83.299973 0)"/>
       <use xlink:href="#NotoSansCJKjp-Regular-30" transform="translate(138.799957 0)"/>
      </g>
     </g>
    </g>
    <g id="text_12">
     <!-- M² 相对完整数据 -->
     <g style="fill: #546875" transform="translate(31.75875 289.276966) rotate(-90) scale(0.2 -0.2)">
      <defs>
       <path id="NotoSansCJKjp-Regular-4d" d="M 640 0 
L 1178 0 
L 1178 2598 
C 1178 3002 1133 3571 1107 3981 
L 1133 3981 
L 1504 2912 
L 2394 474 
L 2790 474 
L 3680 2912 
L 4051 3981 
L 4077 3981 
C 4045 3571 4000 3002 4000 2598 
L 4000 0 
L 4557 0 
L 4557 4698 
L 3840 4698 
L 2944 2182 
C 2835 1856 2733 1530 2624 1203 
L 2592 1203 
C 2477 1530 2368 1856 2259 2182 
L 1357 4698 
L 640 4698 
L 640 0 
z
" transform="scale(0.015625)"/>
       <path id="NotoSansCJKjp-Regular-b2" d="M 371 2822 
L 2285 2822 
L 2285 3213 
L 1107 3213 
C 1702 3821 2144 4262 2144 4794 
C 2144 5389 1773 5702 1222 5702 
C 838 5702 499 5478 282 5158 
L 557 4909 
C 717 5139 922 5318 1158 5318 
C 1491 5318 1696 5094 1696 4730 
C 1696 4307 1242 3866 371 3085 
L 371 2822 
z
" transform="scale(0.015625)"/>
       <path id="NotoSansCJKjp-Regular-76f8" d="M 1837 3539 
L 2752 3539 
L 2752 3987 
L 1837 3987 
L 1837 5357 
L 1389 5357 
L 1389 3987 
L 352 3987 
L 352 3539 
L 1331 3539 
C 1107 2656 653 1664 211 1133 
C 288 1018 410 832 461 698 
C 806 1133 1139 1843 1389 2579 
L 1389 -480 
L 1837 -480 
L 1837 2432 
C 2080 2118 2368 1715 2490 1504 
L 2784 1894 
C 2650 2067 2061 2746 1837 2976 
L 1837 3539 
z
M 3488 384 
L 3488 1491 
L 5427 1491 
L 5427 384 
L 3488 384 
z
M 5427 4531 
L 5427 3462 
L 3488 3462 
L 3488 4531 
L 5427 4531 
z
M 3488 3027 
L 5427 3027 
L 5427 1926 
L 3488 1926 
L 3488 3027 
z
M 3034 4979 
L 3034 -442 
L 3488 -442 
L 3488 -58 
L 5427 -58 
L 5427 -422 
L 5894 -422 
L 5894 4979 
L 3034 4979 
z
" transform="scale(0.015625)"/>
       <path id="NotoSansCJKjp-Regular-5bf9" d="M 2643 4525 
L 2554 4506 
L 467 4506 
L 467 4051 
L 2432 4051 
C 2336 3366 2182 2746 1971 2195 
C 1638 2554 1280 2899 941 3194 
L 608 2899 
C 992 2554 1408 2131 1773 1715 
C 1389 902 890 282 314 -96 
C 422 -179 576 -358 646 -474 
C 1229 -58 1728 531 2118 1312 
C 2400 954 2643 614 2797 326 
L 3168 678 
C 2989 1011 2688 1395 2336 1798 
C 2624 2534 2842 3405 2944 4435 
L 2643 4525 
z
M 6112 3821 
L 5350 3821 
L 5350 5357 
L 4883 5357 
L 4883 3821 
L 3091 3821 
L 3091 3366 
L 4883 3366 
L 4883 160 
C 4883 45 4838 13 4730 6 
C 4627 0 4269 0 3866 13 
C 3936 -128 4006 -352 4026 -480 
C 4570 -480 4890 -467 5082 -384 
C 5274 -301 5350 -160 5350 160 
L 5350 3366 
L 6112 3366 
L 6112 3821 
z
M 4314 1293 
C 4211 1683 3910 2266 3603 2694 
L 3213 2522 
C 3514 2074 3802 1466 3904 1082 
L 4314 1293 
z
" transform="scale(0.015625)"/>
      </defs>
      <use xlink:href="#NotoSansCJKjp-Regular-4d"/>
      <use xlink:href="#NotoSansCJKjp-Regular-b2" transform="translate(81.199982 0)"/>
      <use xlink:href="#NotoSansCJKjp-Regular-20" transform="translate(122.199966 0)"/>
      <use xlink:href="#NotoSansCJKjp-Regular-76f8" transform="translate(144.59996 0)"/>
      <use xlink:href="#NotoSansCJKjp-Regular-5bf9" transform="translate(244.599945 0)"/>
      <use xlink:href="#NotoSansCJKjp-Regular-5b8c" transform="translate(344.59993 0)"/>
      <use xlink:href="#NotoSansCJKjp-Regular-6574" transform="translate(444.599915 0)"/>
      <use xlink:href="#NotoSansCJKjp-Regular-6570" transform="translate(544.599899 0)"/>
      <use xlink:href="#NotoSansCJKjp-Regular-636e" transform="translate(644.599884 0)"/>
     </g>
    </g>
   </g>
   <g id="patch_3">
    <path d="M 88.142344 365.898749 
L 835.302344 365.898749 
" style="fill: none; stroke: #d6dedf; stroke-width: 0.8; stroke-linejoin: miter; stroke-linecap: square"/>
   </g>
   <g id="line2d_21">
    <path d="M 122.104162 206.369337 
L 235.310223 152.444485 
L 423.98699 269.40596 
L 801.340526 296.168263 
" clip-path="url(#p5c84fad5a8)" style="fill: none; stroke: #147d78; stroke-width: 3.2; stroke-linecap: square"/>
    <defs>
     <path id="mf0de11dba9" d="M 0 4.5 
C 1.193414 4.5 2.338109 4.025852 3.181981 3.181981 
C 4.025852 2.338109 4.5 1.193414 4.5 0 
C 4.5 -1.193414 4.025852 -2.338109 3.181981 -3.181981 
C 2.338109 -4.025852 1.193414 -4.5 0 -4.5 
C -1.193414 -4.5 -2.338109 -4.025852 -3.181981 -3.181981 
C -4.025852 -2.338109 -4.5 -1.193414 -4.5 0 
C -4.5 1.193414 -4.025852 2.338109 -3.181981 3.181981 
C -2.338109 4.025852 -1.193414 4.5 0 4.5 
z
" style="stroke: #147d78"/>
    </defs>
    <g clip-path="url(#p5c84fad5a8)">
     <use xlink:href="#mf0de11dba9" x="122.104162" y="206.369337" style="fill: #147d78; stroke: #147d78"/>
     <use xlink:href="#mf0de11dba9" x="235.310223" y="152.444485" style="fill: #147d78; stroke: #147d78"/>
     <use xlink:href="#mf0de11dba9" x="423.98699" y="269.40596" style="fill: #147d78; stroke: #147d78"/>
     <use xlink:href="#mf0de11dba9" x="801.340526" y="296.168263" style="fill: #147d78; stroke: #147d78"/>
    </g>
   </g>
   <g id="line2d_22">
    <path d="M 122.104162 234.493231 
L 235.310223 242.389849 
L 423.98699 275.00195 
L 801.340526 296.168263 
" clip-path="url(#p5c84fad5a8)" style="fill: none; stroke: #d67b3f; stroke-width: 3.2; stroke-linecap: square"/>
    <defs>
     <path id="mdf8663eb68" d="M 0 4.5 
C 1.193414 4.5 2.338109 4.025852 3.181981 3.181981 
C 4.025852 2.338109 4.5 1.193414 4.5 0 
C 4.5 -1.193414 4.025852 -2.338109 3.181981 -3.181981 
C 2.338109 -4.025852 1.193414 -4.5 0 -4.5 
C -1.193414 -4.5 -2.338109 -4.025852 -3.181981 -3.181981 
C -4.025852 -2.338109 -4.5 -1.193414 -4.5 0 
C -4.5 1.193414 -4.025852 2.338109 -3.181981 3.181981 
C -2.338109 4.025852 -1.193414 4.5 0 4.5 
z
" style="stroke: #d67b3f"/>
    </defs>
    <g clip-path="url(#p5c84fad5a8)">
     <use xlink:href="#mdf8663eb68" x="122.104162" y="234.493231" style="fill: #d67b3f; stroke: #d67b3f"/>
     <use xlink:href="#mdf8663eb68" x="235.310223" y="242.389849" style="fill: #d67b3f; stroke: #d67b3f"/>
     <use xlink:href="#mdf8663eb68" x="423.98699" y="275.00195" style="fill: #d67b3f; stroke: #d67b3f"/>
     <use xlink:href="#mdf8663eb68" x="801.340526" y="296.168263" style="fill: #d67b3f; stroke: #d67b3f"/>
    </g>
   </g>
   <g id="text_13">
    <g id="patch_4">
     <path d="M 98.542443 231.118231 
L 145.665881 231.118231 
L 145.665881 210.508231 
L 98.542443 210.508231 
z
" style="fill: #ffffff; opacity: 0.9"/>
    </g>
    <!-- 1.053 -->
    <g style="fill: #d67b3f" transform="translate(99.622443 225.915106) scale(0.18 -0.18)">
     <defs>
      <path id="NotoSansCJKjp-Regular-33" d="M 1690 -83 
C 2522 -83 3194 416 3194 1254 
C 3194 1894 2752 2317 2202 2445 
L 2202 2470 
C 2694 2656 3034 3034 3034 3603 
C 3034 4346 2458 4781 1670 4781 
C 1126 4781 710 4544 358 4218 
L 672 3846 
C 934 4115 1267 4301 1645 4301 
C 2131 4301 2438 4006 2438 3558 
C 2438 3053 2106 2662 1139 2662 
L 1139 2214 
C 2221 2214 2598 1837 2598 1280 
C 2598 736 2202 403 1645 403 
C 1114 403 755 653 480 941 
L 186 557 
C 493 224 954 -83 1690 -83 
z
" transform="scale(0.015625)"/>
     </defs>
     <use xlink:href="#NotoSansCJKjp-Regular-31"/>
     <use xlink:href="#NotoSansCJKjp-Regular-2e" transform="translate(55.499985 0)"/>
     <use xlink:href="#NotoSansCJKjp-Regular-30" transform="translate(83.299973 0)"/>
     <use xlink:href="#NotoSansCJKjp-Regular-35" transform="translate(138.799957 0)"/>
     <use xlink:href="#NotoSansCJKjp-Regular-33" transform="translate(194.299942 0)"/>
    </g>
   </g>
   <g id="text_14">
    <g id="patch_5">
     <path d="M 98.542443 202.994337 
L 145.665881 202.994337 
L 145.665881 182.384337 
L 98.542443 182.384337 
z
" style="fill: #ffffff; opacity: 0.9"/>
    </g>
    <!-- 1.077 -->
    <g style="fill: #147d78" transform="translate(99.622443 197.791212) scale(0.18 -0.18)">
     <defs>
      <path id="NotoSansCJKjp-Regular-37" d="M 1267 0 
L 1875 0 
C 1946 1837 2150 2931 3251 4339 
L 3251 4698 
L 314 4698 
L 314 4192 
L 2586 4192 
C 1670 2912 1344 1779 1267 0 
z
" transform="scale(0.015625)"/>
     </defs>
     <use xlink:href="#NotoSansCJKjp-Regular-31"/>
     <use xlink:href="#NotoSansCJKjp-Regular-2e" transform="translate(55.499985 0)"/>
     <use xlink:href="#NotoSansCJKjp-Regular-30" transform="translate(83.299973 0)"/>
     <use xlink:href="#NotoSansCJKjp-Regular-37" transform="translate(138.799957 0)"/>
     <use xlink:href="#NotoSansCJKjp-Regular-37" transform="translate(194.299942 0)"/>
    </g>
   </g>
   <g id="text_15">
    <g id="patch_6">
     <path d="M 211.748504 239.014849 
L 258.871941 239.014849 
L 258.871941 218.404849 
L 211.748504 218.404849 
z
" style="fill: #ffffff; opacity: 0.9"/>
    </g>
    <!-- 1.046 -->
    <g style="fill: #d67b3f" transform="translate(212.828504 233.811724) scale(0.18 -0.18)">
     <defs>
      <path id="NotoSansCJKjp-Regular-34" d="M 736 1760 
L 1805 3360 
C 1939 3590 2067 3821 2182 4051 
L 2208 4051 
C 2195 3808 2176 3430 2176 3200 
L 2176 1760 
L 736 1760 
z
M 2176 0 
L 2726 0 
L 2726 1293 
L 3347 1293 
L 3347 1760 
L 2726 1760 
L 2726 4698 
L 2080 4698 
L 128 1677 
L 128 1293 
L 2176 1293 
L 2176 0 
z
" transform="scale(0.015625)"/>
      <path id="NotoSansCJKjp-Regular-36" d="M 1875 2477 
C 2445 2477 2726 2074 2726 1440 
C 2726 800 2374 371 1926 371 
C 1338 371 986 902 915 1875 
C 1203 2304 1581 2477 1875 2477 
z
M 1926 -83 
C 2656 -83 3270 531 3270 1440 
C 3270 2419 2765 2912 1971 2912 
C 1600 2912 1190 2694 902 2342 
C 928 3802 1472 4294 2112 4294 
C 2400 4294 2682 4160 2867 3936 
L 3187 4301 
C 2931 4576 2579 4781 2093 4781 
C 1184 4781 358 4077 358 2240 
C 358 691 1024 -83 1926 -83 
z
" transform="scale(0.015625)"/>
     </defs>
     <use xlink:href="#NotoSansCJKjp-Regular-31"/>
     <use xlink:href="#NotoSansCJKjp-Regular-2e" transform="translate(55.499985 0)"/>
     <use xlink:href="#NotoSansCJKjp-Regular-30" transform="translate(83.299973 0)"/>
     <use xlink:href="#NotoSansCJKjp-Regular-34" transform="translate(138.799957 0)"/>
     <use xlink:href="#NotoSansCJKjp-Regular-36" transform="translate(194.299942 0)"/>
    </g>
   </g>
   <g id="text_16">
    <g id="patch_7">
     <path d="M 211.748504 149.069485 
L 258.871941 149.069485 
L 258.871941 128.459485 
L 211.748504 128.459485 
z
" style="fill: #ffffff; opacity: 0.9"/>
    </g>
    <!-- 1.124 -->
    <g style="fill: #147d78" transform="translate(212.828504 143.86636) scale(0.18 -0.18)">
     <use xlink:href="#NotoSansCJKjp-Regular-31"/>
     <use xlink:href="#NotoSansCJKjp-Regular-2e" transform="translate(55.499985 0)"/>
     <use xlink:href="#NotoSansCJKjp-Regular-31" transform="translate(83.299973 0)"/>
     <use xlink:href="#NotoSansCJKjp-Regular-32" transform="translate(138.799957 0)"/>
     <use xlink:href="#NotoSansCJKjp-Regular-34" transform="translate(194.299942 0)"/>
    </g>
   </g>
   <g id="text_17">
    <g id="patch_8">
     <path d="M 400.425271 279.628955 
L 447.548709 279.628955 
L 447.548709 259.018955 
L 400.425271 259.018955 
z
" style="fill: #ffffff; opacity: 0.9"/>
    </g>
    <!-- 1.018 -->
    <g style="fill: #d67b3f" transform="translate(401.505271 274.42583) scale(0.18 -0.18)">
     <defs>
      <path id="NotoSansCJKjp-Regular-38" d="M 1786 -83 
C 2669 -83 3258 448 3258 1133 
C 3258 1773 2874 2125 2464 2362 
L 2464 2394 
C 2746 2611 3091 3034 3091 3526 
C 3091 4250 2605 4762 1805 4762 
C 1075 4762 518 4288 518 3571 
C 518 3078 806 2726 1152 2490 
L 1152 2458 
C 723 2227 288 1792 288 1165 
C 288 442 922 -83 1786 -83 
z
M 2106 2547 
C 1555 2765 1050 3008 1050 3571 
C 1050 4026 1363 4333 1798 4333 
C 2304 4333 2592 3955 2592 3494 
C 2592 3149 2426 2829 2106 2547 
z
M 1798 352 
C 1235 352 819 717 819 1216 
C 819 1664 1082 2035 1459 2278 
C 2125 2010 2701 1773 2701 1146 
C 2701 678 2336 352 1798 352 
z
" transform="scale(0.015625)"/>
     </defs>
     <use xlink:href="#NotoSansCJKjp-Regular-31"/>
     <use xlink:href="#NotoSansCJKjp-Regular-2e" transform="translate(55.499985 0)"/>
     <use xlink:href="#NotoSansCJKjp-Regular-30" transform="translate(83.299973 0)"/>
     <use xlink:href="#NotoSansCJKjp-Regular-31" transform="translate(138.799957 0)"/>
     <use xlink:href="#NotoSansCJKjp-Regular-38" transform="translate(194.299942 0)"/>
    </g>
   </g>
   <g id="patch_9">
    <path d="M 423.98699 260.024984 
Q 423.98699 263.714621 423.98699 267.404258 
" style="fill: none; opacity: 0.55; stroke: #147d78; stroke-width: 0.7; stroke-linecap: round"/>
   </g>
   <g id="text_18">
    <g id="patch_10">
     <path d="M 400.425271 258.028955 
L 447.548709 258.028955 
L 447.548709 237.418955 
L 400.425271 237.418955 
z
" style="fill: #ffffff; opacity: 0.9"/>
    </g>
    <!-- 1.023 -->
    <g style="fill: #147d78" transform="translate(401.505271 252.82583) scale(0.18 -0.18)">
     <use xlink:href="#NotoSansCJKjp-Regular-31"/>
     <use xlink:href="#NotoSansCJKjp-Regular-2e" transform="translate(55.499985 0)"/>
     <use xlink:href="#NotoSansCJKjp-Regular-30" transform="translate(83.299973 0)"/>
     <use xlink:href="#NotoSansCJKjp-Regular-32" transform="translate(138.799957 0)"/>
     <use xlink:href="#NotoSansCJKjp-Regular-33" transform="translate(194.299942 0)"/>
    </g>
   </g>
   <g id="text_19">
    <g id="patch_11">
     <path d="M 777.778807 303.593263 
L 824.902244 303.593263 
L 824.902244 282.983263 
L 777.778807 282.983263 
z
" style="fill: #ffffff; opacity: 0.9"/>
    </g>
    <!-- 1.000 -->
    <g style="fill: #147d78" transform="translate(778.858807 298.390138) scale(0.18 -0.18)">
     <use xlink:href="#NotoSansCJKjp-Regular-31"/>
     <use xlink:href="#NotoSansCJKjp-Regular-2e" transform="translate(55.499985 0)"/>
     <use xlink:href="#NotoSansCJKjp-Regular-30" transform="translate(83.299973 0)"/>
     <use xlink:href="#NotoSansCJKjp-Regular-30" transform="translate(138.799957 0)"/>
     <use xlink:href="#NotoSansCJKjp-Regular-30" transform="translate(194.299942 0)"/>
    </g>
   </g>
   <g id="patch_12">
    <path d="M 801.340526 283.991442 
Q 801.340526 289.079486 801.340526 294.16753 
" style="fill: none; opacity: 0.55; stroke: #d67b3f; stroke-width: 0.7; stroke-linecap: round"/>
   </g>
   <g id="text_20">
    <g id="patch_13">
     <path d="M 777.778807 281.993263 
L 824.902244 281.993263 
L 824.902244 261.383263 
L 777.778807 261.383263 
z
" style="fill: #ffffff; opacity: 0.9"/>
    </g>
    <!-- 1.000 -->
    <g style="fill: #d67b3f" transform="translate(778.858807 276.790138) scale(0.18 -0.18)">
     <use xlink:href="#NotoSansCJKjp-Regular-31"/>
     <use xlink:href="#NotoSansCJKjp-Regular-2e" transform="translate(55.499985 0)"/>
     <use xlink:href="#NotoSansCJKjp-Regular-30" transform="translate(83.299973 0)"/>
     <use xlink:href="#NotoSansCJKjp-Regular-30" transform="translate(138.799957 0)"/>
     <use xlink:href="#NotoSansCJKjp-Regular-30" transform="translate(194.299942 0)"/>
    </g>
   </g>
   <g id="legend_1">
    <g id="line2d_23">
     <path d="M 104.342344 31.066875 
L 122.342344 31.066875 
L 140.342344 31.066875 
" style="fill: none; stroke: #147d78; stroke-width: 3.2; stroke-linecap: square"/>
     <g>
      <use xlink:href="#mf0de11dba9" x="122.342344" y="31.066875" style="fill: #147d78; stroke: #147d78"/>
     </g>
    </g>
    <g id="text_21">
     <!-- PJM -->
     <g style="fill: #203544" transform="translate(154.742344 37.366875) scale(0.18 -0.18)">
      <defs>
       <path id="NotoSansCJKjp-Regular-50" d="M 640 0 
L 1235 0 
L 1235 1862 
L 2010 1862 
C 3040 1862 3738 2323 3738 3315 
C 3738 4339 3034 4698 1984 4698 
L 640 4698 
L 640 0 
z
M 1235 2342 
L 1235 4211 
L 1907 4211 
C 2733 4211 3149 3994 3149 3315 
C 3149 2643 2758 2342 1933 2342 
L 1235 2342 
z
" transform="scale(0.015625)"/>
       <path id="NotoSansCJKjp-Regular-4a" d="M 1517 -83 
C 2432 -83 2803 570 2803 1376 
L 2803 4698 
L 2214 4698 
L 2214 1434 
C 2214 723 1965 435 1459 435 
C 1120 435 858 589 646 960 
L 224 659 
C 499 173 922 -83 1517 -83 
z
" transform="scale(0.015625)"/>
      </defs>
      <use xlink:href="#NotoSansCJKjp-Regular-50"/>
      <use xlink:href="#NotoSansCJKjp-Regular-4a" transform="translate(63.199997 0)"/>
      <use xlink:href="#NotoSansCJKjp-Regular-4d" transform="translate(116.799988 0)"/>
     </g>
    </g>
    <g id="line2d_24">
     <path d="M 226.382344 31.066875 
L 244.382344 31.066875 
L 262.382344 31.066875 
" style="fill: none; stroke: #d67b3f; stroke-width: 3.2; stroke-linecap: square"/>
     <g>
      <use xlink:href="#mdf8663eb68" x="244.382344" y="31.066875" style="fill: #d67b3f; stroke: #d67b3f"/>
     </g>
    </g>
    <g id="text_22">
     <!-- CAISO -->
     <g style="fill: #203544" transform="translate(276.782344 37.366875) scale(0.18 -0.18)">
      <defs>
       <path id="NotoSansCJKjp-Regular-43" d="M 2413 -83 
C 3021 -83 3482 160 3853 589 
L 3526 960 
C 3226 634 2886 435 2438 435 
C 1542 435 979 1178 979 2362 
C 979 3533 1568 4262 2458 4262 
C 2861 4262 3174 4077 3418 3814 
L 3738 4198 
C 3469 4499 3021 4781 2451 4781 
C 1261 4781 371 3859 371 2342 
C 371 819 1248 -83 2413 -83 
z
" transform="scale(0.015625)"/>
       <path id="NotoSansCJKjp-Regular-41" d="M 1453 2624 
C 1619 3155 1773 3661 1920 4211 
L 1946 4211 
C 2099 3667 2246 3155 2419 2624 
L 2643 1907 
L 1222 1907 
L 1453 2624 
z
M 19 0 
L 621 0 
L 1075 1434 
L 2790 1434 
L 3238 0 
L 3866 0 
L 2272 4698 
L 1613 4698 
L 19 0 
z
" transform="scale(0.015625)"/>
       <path id="NotoSansCJKjp-Regular-49" d="M 640 0 
L 1235 0 
L 1235 4698 
L 640 4698 
L 640 0 
z
" transform="scale(0.015625)"/>
       <path id="NotoSansCJKjp-Regular-53" d="M 1946 -83 
C 2925 -83 3539 506 3539 1248 
C 3539 1946 3117 2266 2573 2502 
L 1901 2790 
C 1536 2944 1126 3117 1126 3571 
C 1126 3994 1472 4262 2003 4262 
C 2438 4262 2784 4090 3072 3821 
L 3386 4198 
C 3053 4544 2560 4781 2003 4781 
C 1152 4781 525 4256 525 3533 
C 525 2848 1043 2515 1478 2330 
L 2157 2035 
C 2598 1837 2938 1683 2938 1203 
C 2938 742 2566 435 1952 435 
C 1466 435 992 666 659 1018 
L 301 614 
C 710 186 1280 -83 1946 -83 
z
" transform="scale(0.015625)"/>
       <path id="NotoSansCJKjp-Regular-4f" d="M 2374 -83 
C 3552 -83 4378 858 4378 2362 
C 4378 3866 3552 4781 2374 4781 
C 1197 4781 371 3866 371 2362 
C 371 858 1197 -83 2374 -83 
z
M 2374 435 
C 1530 435 979 1190 979 2362 
C 979 3539 1530 4262 2374 4262 
C 3213 4262 3770 3539 3770 2362 
C 3770 1190 3213 435 2374 435 
z
" transform="scale(0.015625)"/>
      </defs>
      <use xlink:href="#NotoSansCJKjp-Regular-43"/>
      <use xlink:href="#NotoSansCJKjp-Regular-41" transform="translate(63.799988 0)"/>
      <use xlink:href="#NotoSansCJKjp-Regular-49" transform="translate(124.499985 0)"/>
      <use xlink:href="#NotoSansCJKjp-Regular-53" transform="translate(153.799973 0)"/>
      <use xlink:href="#NotoSansCJKjp-Regular-4f" transform="translate(213.499969 0)"/>
     </g>
    </g>
   </g>
  </g>
 </g>
 <defs>
  <clipPath id="p5c84fad5a8">
   <rect x="88.142344" y="63.733309" width="747.16" height="302.16544"/>
  </clipPath>
 </defs>
</svg>
